<?xml version="1.0" encoding="utf-8"?>
<!-- Generator: Adobe Illustrator 24.0.1, SVG Export Plug-In . SVG Version: 6.00 Build 0)  -->
<svg version="1.1" xmlns="http://www.w3.org/2000/svg" xmlns:xlink="http://www.w3.org/1999/xlink" x="0px" y="0px"
	 viewBox="0 0 2001.6 1125.9" style="enable-background:new 0 0 2001.6 1125.9;" xml:space="preserve">
<style type="text/css">
	.st0{fill:#485156;}
	.st1{fill:url(#SVGID_1_);}
	.st2{clip-path:url(#SVGID_3_);fill:url(#SVGID_4_);}
	.st3{clip-path:url(#SVGID_6_);fill:url(#SVGID_7_);}
	.st4{clip-path:url(#SVGID_9_);fill:url(#SVGID_10_);}
	.st5{fill:#0EB494;}
	.st6{fill:#415AD8;}
	.st7{fill:url(#SVGID_11_);}
	.st8{fill:url(#SVGID_12_);}
	.st9{fill:url(#SVGID_13_);}
</style>
<g id="Fondo">
</g>
<g id="Logos">
	<g>
		<g>
			<g>
				<g>
					<g>
						<g>
							<path class="st0" d="M421,570.9c-2.7-4.5-6.1-6.8-11.6-6.8c-5.7,0-12,3.9-12,10.2c0,5.6,5.5,8.6,10,10.3l5.2,2
								c10.2,4,17.9,9.6,17.9,21.7c0,13.1-10.1,22.4-23,22.4c-11.6,0-20.7-8.6-22.2-20.1l9.1-1.9c-0.1,7.9,6.2,13.7,13.9,13.7
								c7.7,0,13.3-6.5,13.3-14c0-7.7-6.2-11.1-12.4-13.7l-5-2.1c-8.2-3.5-15.7-8.2-15.7-18.2c0-11.6,10.3-18.6,21.2-18.6
								c8,0,14.6,3.9,18.5,10.9L421,570.9z"/>
							<path class="st0" d="M467.2,564.1c0,3.2-2.7,5.8-5.9,5.8c-3.2,0-5.9-2.6-5.9-5.8c0-3.3,2.7-6,5.9-6
								C464.5,558.1,467.2,560.8,467.2,564.1z M465.6,629.2H457v-44.7h8.6V629.2z"/>
							<path class="st0" d="M513,594.8c-1-2.2-3.2-3.9-5.7-3.9c-2.4,0-4.7,1.9-4.7,4.4c0,3.9,5.2,5.6,10.4,8
								c5.3,2.4,10.3,5.6,10.3,12.7c0,8.5-7.1,14.8-15.4,14.8c-6.5,0-13.1-3.7-15.5-10l7.4-3.3c1.8,3.3,4,5.7,8.1,5.7
								c3.6,0,6.8-2.5,6.8-6.3c0-2.4-1.1-3.5-3.2-4.9l-8.4-4.5c-5-2.7-8.6-5.2-8.6-11.3c0-7.3,5.9-13,13.2-13c5.4,0,9.8,3,12.2,7.8
								L513,594.8z"/>
							<path class="st0" d="M557.3,629.2h-8.6v-36.7H544v-8h4.7v-17.1h8.6v17.1h8.4v8h-8.4V629.2z"/>
							<path class="st0" d="M591.2,608.3c0.1,7.6,5.3,14.8,13.5,14.8c6.6,0,10.1-3.3,13.4-8.7l7.3,4.1c-4.2,7.7-12,12.2-20.7,12.2
								c-13.7,0-22-10.3-22-23.5c0-13.7,7.4-24.1,21.8-24.1c14.2,0,20.9,10.5,20.9,23.8v1.3H591.2z M616.7,601.8
								c-1-6.7-5.4-11.2-12.3-11.2c-6.7,0-11.6,4.8-12.7,11.2H616.7z"/>
							<path class="st0" d="M656.7,590.2h0.2c2.5-3.9,7-7,11.8-7c5.8,0,10,3,12.9,7.9c2.8-4.8,8.1-7.9,13.7-7.9
								c11.7,0,14.8,9.2,14.8,19.3v26.7h-8.6v-25.3c0-5.7-0.8-13.1-8.3-13.1c-9.2,0-9.8,9.5-9.8,16.4v22h-8.6v-23.7
								c0-5.8-0.3-14.7-8.2-14.7c-9.2,0-9.9,9.5-9.9,16.4v22h-8.6v-44.7h8.6V590.2z"/>
							<path class="st0" d="M779.2,629.2h-8.6v-7h-0.2c-3.4,5.1-8.8,8.5-15.2,8.5c-13.7,0-21.4-11.4-21.4-24.2
								c0-12.2,8.1-23.4,21.1-23.4c6.6,0,11.9,3.4,15.5,8.8h0.2v-7.4h8.6V629.2z M771.1,606.9c0-8.7-5.3-16-14.5-16
								c-8.9,0-14.1,7.7-14.1,16c0,8.4,5.1,16.2,14.1,16.2C765.9,623.1,771.1,615.7,771.1,606.9z"/>
							<path class="st0" d="M841.4,557.2h38.7v8.2h-29.7v20.1h28.8v8.2h-28.8V621h29.7v8.2h-38.7V557.2z"/>
							<path class="st0" d="M923.9,594.8c-1-2.2-3.2-3.9-5.7-3.9c-2.4,0-4.7,1.9-4.7,4.4c0,3.9,5.2,5.6,10.4,8
								c5.3,2.4,10.3,5.6,10.3,12.7c0,8.5-7.1,14.8-15.4,14.8c-6.5,0-13.1-3.7-15.5-10l7.4-3.3c1.8,3.3,4,5.7,8.1,5.7
								c3.6,0,6.8-2.5,6.8-6.3c0-2.4-1.1-3.5-3.2-4.9l-8.4-4.5c-5-2.7-8.6-5.2-8.6-11.3c0-7.3,5.9-13,13.2-13c5.4,0,9.8,3,12.2,7.8
								L923.9,594.8z"/>
							<path class="st0" d="M968.1,629.2h-8.6v-36.7h-4.7v-8h4.7v-17.1h8.6v17.1h8.4v8h-8.4V629.2z"/>
							<path class="st0" d="M1038.8,629.2h-8.6v-7h-0.2c-3.4,5.1-8.8,8.5-15.2,8.5c-13.7,0-21.4-11.4-21.4-24.2
								c0-12.2,8.1-23.4,21.1-23.4c6.6,0,11.9,3.4,15.5,8.8h0.2v-7.4h8.6V629.2z M1030.7,606.9c0-8.7-5.3-16-14.5-16
								c-8.9,0-14.1,7.7-14.1,16c0,8.4,5.1,16.2,14.1,16.2C1025.6,623.1,1030.7,615.7,1030.7,606.9z"/>
							<path class="st0" d="M1099,622.3h-0.2c-3.4,5.1-8.9,8.5-15.2,8.5c-13.7,0-21.4-11.4-21.4-24.2c0-12.2,8.1-23.4,21-23.4
								c6.7,0,12,3.4,15.6,8.8h0.2v-45.6h8.6v82.9h-8.6V622.3z M1099.5,606.9c0-8.7-5.3-16-14.5-16c-8.9,0-14.1,7.7-14.1,16
								c0,8.4,5.1,16.2,14.1,16.2C1094.4,623.1,1099.5,615.7,1099.5,606.9z"/>
							<path class="st0" d="M1153.5,563.4l-15.7,14.2l-4.2-2.6l11.9-15.8L1153.5,563.4z M1145,629.2h-8.6v-44.7h8.6V629.2z"/>
							<path class="st0" d="M1192.4,594.8c-1-2.2-3.2-3.9-5.7-3.9c-2.4,0-4.7,1.9-4.7,4.4c0,3.9,5.2,5.6,10.4,8
								c5.3,2.4,10.3,5.6,10.3,12.7c0,8.5-7.1,14.8-15.4,14.8c-6.5,0-13.1-3.7-15.5-10l7.4-3.3c1.8,3.3,4,5.7,8.1,5.7
								c3.6,0,6.8-2.5,6.8-6.3c0-2.4-1.1-3.5-3.2-4.9l-8.4-4.5c-5-2.7-8.6-5.2-8.6-11.3c0-7.3,5.9-13,13.2-13c5.4,0,9.8,3,12.2,7.8
								L1192.4,594.8z"/>
							<path class="st0" d="M1236.7,629.2h-8.6v-36.7h-4.7v-8h4.7v-17.1h8.6v17.1h8.4v8h-8.4V629.2z"/>
							<path class="st0" d="M1277.6,570.2c0,3.2-2.7,5.8-5.9,5.8c-3.2,0-5.9-2.6-5.9-5.8c0-3.3,2.7-6,5.9-6
								C1274.9,564.1,1277.6,566.8,1277.6,570.2z M1276,629.2h-8.6v-44.7h8.6V629.2z"/>
							<path class="st0" d="M1336.2,597.2c-3.4-3.9-7.6-6-12.8-6c-8.4,0-14.9,7.4-14.9,15.7c0,9.2,6.4,15.8,15.5,15.8
								c5,0,9-2.3,12.2-5.9v11c-3.9,2.1-7.8,3-12.3,3c-13.2,0-24-10.1-24-23.5c0-13.8,10.7-24.1,24.4-24.1c4,0,8.4,1,11.8,3V597.2z"
								/>
							<path class="st0" d="M1407,607c0,13.5-10.5,23.8-23.9,23.8c-13.4,0-23.9-10.3-23.9-23.8s10.5-23.8,23.9-23.8
								C1396.5,583.2,1407,593.5,1407,607z M1367.8,607c0,8.4,6.8,15.6,15.3,15.6c8.5,0,15.3-7.2,15.3-15.6
								c0-8.5-6.8-15.6-15.3-15.6C1374.6,591.4,1367.8,598.5,1367.8,607z"/>
							<path class="st0" d="M385.1,656.8l54,56.6v-53.2h9v74.9l-54-56.6v53.7h-9V656.8z"/>
							<path class="st0" d="M516.5,732.3h-8.6v-7h-0.2c-3.4,5.1-8.8,8.5-15.2,8.5c-13.7,0-21.4-11.4-21.4-24.2
								c0-12.2,8.1-23.4,21.1-23.4c6.6,0,11.9,3.4,15.5,8.8h0.2v-7.4h8.6V732.3z M508.3,709.9c0-8.7-5.3-16-14.5-16
								c-8.9,0-14.1,7.7-14.1,16c0,8.4,5.1,16.2,14.1,16.2C503.2,726.1,508.3,718.7,508.3,709.9z"/>
							<path class="st0" d="M577.1,700.3c-3.4-3.9-7.6-6-12.8-6c-8.4,0-14.9,7.4-14.9,15.7c0,9.2,6.4,15.8,15.5,15.8
								c5,0,9-2.3,12.2-5.9v11c-3.9,2.1-7.8,3-12.3,3c-13.2,0-24-10.1-24-23.5c0-13.8,10.7-24.1,24.4-24.1c4,0,8.4,1,11.8,3V700.3z"
								/>
							<path class="st0" d="M615.1,672c0,3.2-2.7,5.8-5.9,5.8c-3.2,0-5.9-2.6-5.9-5.8c0-3.3,2.7-6,5.9-6
								C612.4,666,615.1,668.6,615.1,672z M613.5,732.3h-8.6v-44.7h8.6V732.3z"/>
							<path class="st0" d="M687.6,710c0,13.5-10.5,23.8-23.9,23.8s-23.9-10.3-23.9-23.8c0-13.5,10.5-23.8,23.9-23.8
								S687.6,696.6,687.6,710z M648.4,710c0,8.4,6.8,15.6,15.3,15.6S679,718.4,679,710c0-8.5-6.8-15.6-15.3-15.6
								S648.4,701.5,648.4,710z"/>
							<path class="st0" d="M720.6,693.6h0.2c2.7-4.8,8-7.4,13.5-7.4c12.6,0,15.8,8.5,15.8,19.4v26.6h-8.6v-25.6
								c0-7.6-1.1-12.8-9.8-12.8c-11.1,0-11.1,9.7-11.1,17.9v20.5H712v-44.7h8.6V693.6z"/>
							<path class="st0" d="M820.5,732.3h-8.6v-7h-0.2c-3.4,5.1-8.8,8.5-15.2,8.5c-13.7,0-21.4-11.4-21.4-24.2
								c0-12.2,8.1-23.4,21.1-23.4c6.6,0,11.9,3.4,15.5,8.8h0.2v-7.4h8.6V732.3z M812.4,709.9c0-8.7-5.3-16-14.5-16
								c-8.9,0-14.1,7.7-14.1,16c0,8.4,5.1,16.2,14.1,16.2C807.2,726.1,812.4,718.7,812.4,709.9z"/>
							<path class="st0" d="M855.2,732.3h-8.6v-82.9h8.6V732.3z"/>
							<path class="st0" d="M993.8,675.2c-5.4-6.6-14.9-11.1-23.5-11.1c-17.5,0-31.9,15.1-31.9,32.2c0,8.2,3.5,15.9,9.4,21.6
								c5.9,5.6,14.2,9.7,22.5,9.7c8.1,0,18.3-4.4,23.5-10.7v6.1c-6.6,5.5-14.7,8.7-23.3,8.7c-19.5,0-36.5-16.3-36.5-35.9
								c0-19.9,16.7-36.1,36.6-36.1c8.5,0,17,3.3,23.2,9.1V675.2z"/>
							<path class="st0" d="M1061.4,709.5c0,12.7-9.9,22.4-22.6,22.4c-12.4,0-22.3-10.1-22.3-22.3c0-12.4,9.8-22.5,22.3-22.5
								C1051.5,687.1,1061.4,696.8,1061.4,709.5z M1020.7,709.6c0,9.8,7.7,18.4,17.8,18.4c10.5,0,18.7-8,18.7-18.4
								c0-10.6-8.1-18.6-18.7-18.6C1028.3,691,1020.7,699.7,1020.7,709.6z"/>
							<path class="st0" d="M1088.8,731h-4.2v-76.7h4.2V731z"/>
							<path class="st0" d="M1158.1,709.5c0,12.7-9.9,22.4-22.6,22.4c-12.4,0-22.3-10.1-22.3-22.3c0-12.4,9.8-22.5,22.3-22.5
								C1148.2,687.1,1158.1,696.8,1158.1,709.5z M1117.4,709.6c0,9.8,7.7,18.4,17.8,18.4c10.5,0,18.7-8,18.7-18.4
								c0-10.6-8.1-18.6-18.7-18.6C1125,691,1117.4,699.7,1117.4,709.6z"/>
							<path class="st0" d="M1186.7,693.5h0.2c2-4,6.2-6.3,10.8-6.3c5.5,0,9.8,2.8,12.1,7.8c2.3-5.1,7.1-7.8,12.5-7.8
								c11.1,0,13.3,7.5,13.3,16.9V731h-4.2v-27.5c0-6.6-1-12.5-9.2-12.5c-8.9,0-11.1,7.8-11.1,15.2V731h-4.2v-26.5
								c0-6.7-1.2-13.5-9.6-13.5c-9,0-10.7,9.4-10.7,16.4V731h-4.2v-42.9h4.2V693.5z"/>
							<path class="st0" d="M1264.2,654.3h4.2v41.2h0.2c3.6-5.4,9.9-8.4,16.5-8.4c12.8,0,19.8,9.6,19.8,22.1c0,12.5-7,22.7-20,22.7
								c-6.3,0-13.2-3.2-16.4-8.6h-0.2v7.7h-4.2V654.3z M1301.9,709.2c0-9.4-6.8-18.2-16.7-18.2c-10.9,0-17.1,8.1-17.1,18.3
								c0,10,6.3,18.7,16.9,18.7C1295.5,728,1301.9,719.1,1301.9,709.2z"/>
							<path class="st0" d="M1338,673.8c0,2.1-1.7,3.8-3.8,3.8s-3.8-1.7-3.8-3.8c0-2,1.7-3.8,3.8-3.8S1338,671.7,1338,673.8z
								 M1336.3,731h-4.2v-42.9h4.2V731z"/>
							<path class="st0" d="M1404.3,731h-4.2v-7.7h-0.2c-3.2,5.5-10,8.6-16.4,8.6c-13,0-21.2-10.1-21.2-22.7
								c0-12.5,8.1-22.1,21-22.1c6.6,0,12.9,3,16.5,8.4h0.2v-7.4h4.2V731z M1366.5,709.2c0,9.8,6.5,18.8,16.9,18.8
								c11,0,16.9-8.9,16.9-19.2c0-9.9-6.8-17.7-17.2-17.7C1373.3,691,1366.5,700,1366.5,709.2z"/>
						</g>
						<g>
							<g>
								<path class="st0" d="M1570.9,171.9v4.7h-29.2l21.1-25c1.8-2.2,3.1-4.6,3.1-7.5c0-5-4.1-8.7-9-8.7c-5.5,0-9,4-9.1,9.3h-5
									c0.2-7.9,6-14,14-14c7.5,0,14.2,5.5,14.2,13.4c0,3.7-1.1,6.8-3.4,9.5l-15.6,18.4H1570.9z"/>
								<path class="st0" d="M1594.6,174c0,1.9-1.5,3.4-3.4,3.4c-1.9,0-3.4-1.6-3.4-3.4c0-1.8,1.5-3.3,3.4-3.3
									C1593.1,170.7,1594.6,172.2,1594.6,174z"/>
								<path class="st0" d="M1641.1,154.1c0,11.1-5.9,23.3-16.2,23.3s-16.2-12.2-16.2-23.3c0-9.3,4.7-23.4,16.2-23.4
									S1641.1,144.8,1641.1,154.1z M1613.8,154.3c0.1,6.3,2.8,18.4,11.1,18.4s11-12,11.1-18.4c0.1-6.4-2.6-19-11.1-19
									S1613.7,147.9,1613.8,154.3z"/>
							</g>
							<linearGradient id="SVGID_1_" gradientUnits="userSpaceOnUse" x1="1471.1248" y1="155.6326" x2="1519.1738" y2="155.6326">
								<stop  offset="0" style="stop-color:#F30064"/>
								<stop  offset="0.2487" style="stop-color:#EF0062"/>
								<stop  offset="0.5219" style="stop-color:#E1005D"/>
								<stop  offset="0.8057" style="stop-color:#CB0055"/>
								<stop  offset="1" style="stop-color:#B8004E"/>
							</linearGradient>
							<polygon class="st1" points="1519.2,179.7 1471.1,131.6 1519.2,131.6 							"/>
							<g>
								<defs>
									<path id="SVGID_2_" d="M368.9,407.9V394c0-3.7,3.3-6.4,7.9-6.4h58.9c4.6,0,7.9,2.7,7.9,6.4v10.7c0,29.9,28.1,51.8,72,51.8
										c41.2,0,63.5-19.8,63.5-46.4c0-29.9-28.8-42.7-87-67.8c-60.8-25.6-121-51.8-121-115.3c0-61.9,54.9-99.3,136.1-99.3
										c86.3,0,143.9,42.2,143.9,105.2V244c0,3.7-3.3,6.4-7.8,6.4h-59.5c-4.6,0-7.8-2.7-7.8-6.4v-10.1c0-29.9-25.5-52.9-70-52.9
										c-37.3,0-60.2,16.5-60.2,45.4c0,29.4,24.2,41.6,86.3,67.3c66.7,31,122.3,53.4,122.3,113.7c0,61.9-55.6,102.5-141.9,102.5
										C425.8,509.9,368.9,469.3,368.9,407.9z"/>
								</defs>
								<clipPath id="SVGID_3_">
									<use xlink:href="#SVGID_2_"  style="overflow:visible;"/>
								</clipPath>
								<linearGradient id="SVGID_4_" gradientUnits="userSpaceOnUse" x1="368.8936" y1="310.4588" x2="1623.4784" y2="310.4588">
									<stop  offset="0" style="stop-color:#20B3AA"/>
									<stop  offset="0.6052" style="stop-color:#0C46AC"/>
									<stop  offset="0.6233" style="stop-color:#1742A7"/>
									<stop  offset="0.8108" style="stop-color:#861F77"/>
									<stop  offset="0.94" style="stop-color:#CC0958"/>
									<stop  offset="1" style="stop-color:#E7004C"/>
								</linearGradient>
								<rect x="368.9" y="62.8" class="st2" width="1254.6" height="495.3"/>
							</g>
							<g>
								<defs>
									<path id="SVGID_5_" d="M988.2,195.7H829.4c-2,0-3.3,1.1-3.3,2.7v81.8c0,1.6,1.3,2.7,3.3,2.7h116.4c4.6,0,7.8,2.7,7.8,6.4
										v57.1c0,3.7-3.3,6.4-7.8,6.4H829.4c-2,0-3.3,1.1-3.3,2.7v83.9c0,1.6,1.3,2.7,3.3,2.7h181.9c4.6,0,7.9,2.7,7.9,6.4v50.9
										c0,3.7-3.3,6.4-7.9,6.4H758.1c-4.6,0-7.9-2.7-7.9-6.4V138.3c0-3.7,3.3-6.4,7.9-6.4h230.1c4.6,0,7.9,2.7,7.9,6.4v50.9
										C996,193,992.8,195.7,988.2,195.7z"/>
								</defs>
								<clipPath id="SVGID_6_">
									<use xlink:href="#SVGID_5_"  style="overflow:visible;"/>
								</clipPath>
								<linearGradient id="SVGID_7_" gradientUnits="userSpaceOnUse" x1="266.356" y1="302.2097" x2="1524.0756" y2="302.2097">
									<stop  offset="0" style="stop-color:#20B3AA"/>
									<stop  offset="0.4954" style="stop-color:#0C46AC"/>
									<stop  offset="0.5186" style="stop-color:#1742A7"/>
									<stop  offset="0.7581" style="stop-color:#861F77"/>
									<stop  offset="0.9234" style="stop-color:#CC0958"/>
									<stop  offset="1" style="stop-color:#E7004C"/>
								</linearGradient>
								<polygon class="st3" points="1520.9,549.9 266.4,549.9 269.5,54.6 1524.1,54.6 								"/>
							</g>
							<g>
								<defs>
									<path id="SVGID_8_" d="M1104.1,499.2V138.3c0-3.7,3.3-6.4,7.8-6.4h62.3c3.9,0,7.2,1.6,9.2,4.8L1326.6,369
										c1.3,2.7,3.9,2.1,3.9-0.5V138.3c0-3.7,3.3-6.4,7.8-6.4h59.5c4.6,0,7.9,2.7,7.9,6.4v360.9c0,3.7-3.3,6.4-7.9,6.4h-60.2
										c-3.9,0-7.2-1.6-9.2-4.8l-143.9-233.3c-1.3-2.7-3.9-2.1-3.9,0.5l0.7,231.2c0,3.7-3.3,6.4-7.8,6.4h-61.6
										C1107.3,505.6,1104.1,503,1104.1,499.2z"/>
								</defs>
								<clipPath id="SVGID_9_">
									<use xlink:href="#SVGID_8_"  style="overflow:visible;"/>
								</clipPath>
								<linearGradient id="SVGID_10_" gradientUnits="userSpaceOnUse" x1="159.0058" y1="310.4588" x2="1413.5907" y2="310.4588">
									<stop  offset="0" style="stop-color:#20B3AA"/>
									<stop  offset="0.511" style="stop-color:#0C46AC"/>
									<stop  offset="0.5334" style="stop-color:#1742A7"/>
									<stop  offset="0.7656" style="stop-color:#861F77"/>
									<stop  offset="0.9257" style="stop-color:#CC0958"/>
									<stop  offset="1" style="stop-color:#E7004C"/>
								</linearGradient>
								<rect x="159" y="62.8" class="st4" width="1254.6" height="495.3"/>
							</g>
							<g>
								<path class="st5" d="M506.4,504.4c-42.5,0-78.6-9.7-104.4-28.1c-25.9-18.4-39.5-44.2-39.5-74.6v-13.9c0-4.1,3.6-7.1,8.6-7.1
									h58.9c5,0,8.6,3,8.6,7.1v10.7c0,14.4,6.8,27.4,19.3,36.5c12.9,9.5,30.9,14.5,52,14.5c38.7,0,62.7-17.5,62.7-45.7
									c0-28.6-26.5-41.3-86.6-67.1c-59.7-25.1-121.4-51.2-121.4-116c0-30.3,13.1-55.7,37.9-73.4c24.3-17.4,58.5-26.6,98.9-26.6
									c86.5,0,144.6,42.5,144.6,105.9v11.2c0,4.1-3.6,7.1-8.6,7.1h-59.5c-5,0-8.6-3-8.6-7.1v-10.1c0-31.2-27.8-52.1-69.3-52.1
									c-37.2,0-59.5,16.7-59.5,44.7c0,28.6,22.3,40.4,85.9,66.6c3.4,1.6,6.8,3.1,10.1,4.7c62.9,29,112.6,52,112.6,109.7
									C649.1,463.8,593.1,504.4,506.4,504.4z M371,382.1c-4.2,0-7.1,2.3-7.1,5.7v13.9c0,29.9,13.5,55.3,39,73.4
									c25.6,18.2,61.4,27.8,103.6,27.8c85.8,0,141.2-40,141.2-101.8c0-56.8-49.3-79.6-111.8-108.4c-3.3-1.5-6.7-3.1-10.1-4.7
									c-63-26-86.8-38.5-86.8-67.9c0-28.9,22.8-46.1,60.9-46.1c42.3,0,70.7,21.5,70.7,53.6v10.1c0,3.4,2.9,5.7,7.1,5.7h59.5
									c4.2,0,7.1-2.3,7.1-5.7v-11.2c0-62.5-57.5-104.5-143.2-104.5c-40.1,0-74,9.1-98,26.3c-24.4,17.5-37.3,42.5-37.3,72.3
									c0,63.9,61.3,89.7,120.6,114.7c56.4,24.3,87.4,37.7,87.4,68.5c0,13.7-5.7,25.4-16.5,33.8c-11.3,8.7-27.8,13.4-47.6,13.4
									c-21.4,0-39.7-5.1-52.8-14.8c-12.8-9.4-19.8-22.8-19.8-37.7v-10.7c0-3.4-2.9-5.7-7.1-5.7H371z"/>
							</g>
							<g>
								<path class="st5" d="M518.1,515.6c-42.5,0-78.6-9.7-104.4-28.1c-25.9-18.4-39.5-44.2-39.5-74.6v-13.9c0-4.1,3.6-7.1,8.6-7.1
									h58.9c5,0,8.6,3,8.6,7.1v10.7c0,14.4,6.8,27.4,19.3,36.5c12.9,9.5,30.9,14.5,52,14.5c38.7,0,62.7-17.5,62.7-45.7
									c0-28.6-26.5-41.3-86.6-67.1c-59.7-25.1-121.4-51.2-121.4-116c0-30.3,13.1-55.7,37.9-73.4c24.3-17.4,58.5-26.6,98.9-26.6
									c86.5,0,144.6,42.5,144.6,105.9v11.2c0,4.1-3.6,7.1-8.6,7.1h-59.5c-5,0-8.6-3-8.6-7.1v-10.1c0-31.2-27.8-52.1-69.3-52.1
									c-37.2,0-59.5,16.7-59.5,44.7c0,28.6,22.3,40.4,85.9,66.6c3.4,1.6,6.8,3.1,10.1,4.7c62.9,29,112.6,52,112.6,109.7
									C660.8,475.1,604.8,515.6,518.1,515.6z M382.7,393.4c-4.2,0-7.1,2.3-7.1,5.7V413c0,29.9,13.5,55.3,39,73.4
									c25.6,18.2,61.4,27.8,103.6,27.8c85.8,0,141.2-40,141.2-101.8c0-56.8-49.3-79.6-111.8-108.4c-3.3-1.5-6.7-3.1-10.1-4.7
									c-63-26-86.8-38.5-86.8-67.9c0-28.9,22.8-46.1,60.9-46.1c42.3,0,70.7,21.5,70.7,53.6v10.1c0,3.4,2.9,5.7,7.1,5.7H649
									c4.2,0,7.1-2.3,7.1-5.7v-11.2c0-62.5-57.5-104.5-143.2-104.5c-40.1,0-74,9.1-98,26.3c-24.4,17.5-37.3,42.5-37.3,72.3
									c0,63.9,61.3,89.7,120.6,114.7c56.4,24.3,87.4,37.7,87.4,68.5c0,13.7-5.7,25.4-16.5,33.8c-11.3,8.7-27.8,13.4-47.6,13.4
									c-21.4,0-39.7-5.1-52.8-14.8c-12.8-9.4-19.8-22.8-19.8-37.7v-10.7c0-3.4-2.9-5.7-7.1-5.7H382.7z"/>
							</g>
							<g>
								<path class="st6" d="M1005.5,500.9H752.4c-5,0-8.6-3-8.6-7.1V132.9c0-4.1,3.6-7.1,8.6-7.1h230.1c5,0,8.6,3,8.6,7.1v50.9
									c0,4.1-3.6,7.1-8.6,7.1H823.7c-1.6,0-2.6,0.8-2.6,2v81.8c0,1.2,1,2,2.6,2h116.4c5,0,8.6,3,8.6,7.1v57.1
									c0,4.1-3.6,7.1-8.6,7.1H823.7c-1.6,0-2.6,0.8-2.6,2v83.9c0,1.2,1,2,2.6,2h181.9c5,0,8.6,3,8.6,7.1v50.9
									C1014.1,497.9,1010.5,500.9,1005.5,500.9z M752.4,127.2c-4.2,0-7.1,2.3-7.1,5.7v360.9c0,3.4,2.9,5.7,7.1,5.7h253.2
									c4.2,0,7.1-2.3,7.1-5.7v-50.9c0-3.4-2.9-5.7-7.1-5.7H823.7c-2.3,0-4-1.4-4-3.4v-83.9c0-2,1.6-3.4,4-3.4h116.4
									c4.2,0,7.1-2.3,7.1-5.7v-57.1c0-3.4-2.9-5.7-7.1-5.7H823.7c-2.3,0-4-1.4-4-3.4v-81.8c0-2,1.6-3.4,4-3.4h158.8
									c4.2,0,7.1-2.3,7.1-5.7v-50.9c0-3.4-2.9-5.7-7.1-5.7H752.4z"/>
							</g>
							<g>
								<path class="st6" d="M1016.5,511.4H763.4c-5,0-8.6-3-8.6-7.1V143.4c0-4.1,3.6-7.1,8.6-7.1h230.1c5,0,8.6,3,8.6,7.1v50.9
									c0,4.1-3.6,7.1-8.6,7.1H834.7c-1.6,0-2.6,0.8-2.6,2v81.8c0,1.2,1,2,2.6,2h116.4c5,0,8.6,3,8.6,7.1v57.1
									c0,4.1-3.6,7.1-8.6,7.1H834.7c-1.6,0-2.6,0.8-2.6,2v83.9c0,1.2,1,2,2.6,2h181.9c5,0,8.6,3,8.6,7.1v50.9
									C1025.1,508.4,1021.5,511.4,1016.5,511.4z M763.4,137.7c-4.2,0-7.1,2.3-7.1,5.7v360.9c0,3.4,2.9,5.7,7.1,5.7h253.2
									c4.2,0,7.1-2.3,7.1-5.7v-50.9c0-3.4-2.9-5.7-7.1-5.7H834.7c-2.3,0-4-1.4-4-3.4v-83.9c0-2,1.6-3.4,4-3.4h116.4
									c4.2,0,7.1-2.3,7.1-5.7v-57.1c0-3.4-2.9-5.7-7.1-5.7H834.7c-2.3,0-4-1.4-4-3.4v-81.8c0-2,1.6-3.4,4-3.4h158.8
									c4.2,0,7.1-2.3,7.1-5.7v-50.9c0-3.4-2.9-5.7-7.1-5.7H763.4z"/>
							</g>
							<g>
								<linearGradient id="SVGID_11_" gradientUnits="userSpaceOnUse" x1="1109.2101" y1="324.2666" x2="1412.3284" y2="324.2666">
									<stop  offset="0" style="stop-color:#EB003F"/>
									<stop  offset="1" style="stop-color:#E7004C"/>
								</linearGradient>
								<path class="st7" d="M1403.8,511.8h-60.2c-4.3,0-7.7-1.8-9.8-5.1l-143.9-233.3c-0.6-1.1-1.3-1.5-1.8-1.4
									c-0.5,0.1-0.8,0.7-0.8,1.6l0.7,231.2c0,4.1-3.6,7.1-8.6,7.1h-61.6c-5,0-8.6-3-8.6-7.1V143.8c0-4.1,3.6-7.1,8.6-7.1h62.3
									c4.3,0,7.7,1.8,9.8,5.1l143.3,232.2c0.6,1.1,1.3,1.5,1.8,1.4c0.5-0.1,0.8-0.7,0.8-1.6V143.8c0-4.1,3.6-7.1,8.6-7.1h59.5
									c5,0,8.6,3,8.6,7.1v360.9C1412.3,508.8,1408.7,511.8,1403.8,511.8z M1188.3,270.6c1.1,0,2.2,0.8,2.8,2.2L1335,505.9
									c1.8,2.9,4.8,4.5,8.6,4.5h60.2c4.2,0,7.1-2.3,7.1-5.7V143.8c0-3.4-2.9-5.7-7.1-5.7h-59.5c-4.2,0-7.1,2.3-7.1,5.7v230.1
									c0,1.5-0.8,2.7-1.9,2.9c-1.3,0.3-2.6-0.5-3.3-2.1l-143.2-232.2c-1.8-2.9-4.7-4.5-8.6-4.5h-62.3c-4.2,0-7.1,2.3-7.1,5.7
									v360.9c0,3.4,2.9,5.7,7.1,5.7h61.6c4.2,0,7.1-2.3,7.1-5.7l-0.7-231.2c0-1.5,0.8-2.7,1.9-2.9
									C1188,270.6,1188.1,270.6,1188.3,270.6z"/>
							</g>
							<g>
								<linearGradient id="SVGID_12_" gradientUnits="userSpaceOnUse" x1="1097.8284" y1="313.673" x2="1400.9468" y2="313.673">
									<stop  offset="0" style="stop-color:#EB003F"/>
									<stop  offset="1" style="stop-color:#E7004C"/>
								</linearGradient>
								<path class="st8" d="M1392.4,501.2h-60.2c-4.3,0-7.7-1.8-9.8-5.1l-143.9-233.3c-0.6-1.1-1.3-1.5-1.8-1.4
									c-0.5,0.1-0.8,0.7-0.8,1.6l0.7,231.2c0,4.1-3.6,7.1-8.6,7.1h-61.6c-5,0-8.6-3-8.6-7.1V133.2c0-4.1,3.6-7.1,8.6-7.1h62.3
									c4.3,0,7.7,1.8,9.8,5.1l143.3,232.2c0.6,1.1,1.3,1.5,1.8,1.4c0.5-0.1,0.8-0.7,0.8-1.6V133.2c0-4.1,3.6-7.1,8.6-7.1h59.5
									c5,0,8.6,3,8.6,7.1v360.9C1400.9,498.2,1397.3,501.2,1392.4,501.2z M1176.9,260c1.1,0,2.2,0.8,2.8,2.2l143.9,233.2
									c1.8,2.9,4.8,4.5,8.6,4.5h60.2c4.2,0,7.1-2.3,7.1-5.7V133.2c0-3.4-2.9-5.7-7.1-5.7h-59.5c-4.2,0-7.1,2.3-7.1,5.7v230.1
									c0,1.5-0.8,2.7-1.9,2.9c-1.3,0.3-2.6-0.5-3.3-2.1L1177.2,132c-1.8-2.9-4.7-4.5-8.6-4.5h-62.3c-4.2,0-7.1,2.3-7.1,5.7v360.9
									c0,3.4,2.9,5.7,7.1,5.7h61.6c4.2,0,7.1-2.3,7.1-5.7l-0.7-231.2c0-1.5,0.8-2.7,1.9-2.9C1176.6,260,1176.8,260,1176.9,260z"/>
							</g>
						</g>
					</g>
				</g>
			</g>
			<g>
				<path class="st0" d="M906.1,700.3v7h-19.3v-7H906.1z"/>
			</g>
		</g>
		<linearGradient id="SVGID_13_" gradientUnits="userSpaceOnUse" x1="45.3349" y1="991.6547" x2="1956.256" y2="991.6547">
			<stop  offset="0" style="stop-color:#20B3AA"/>
			<stop  offset="0.511" style="stop-color:#0C46AC"/>
			<stop  offset="0.5334" style="stop-color:#1742A7"/>
			<stop  offset="0.7656" style="stop-color:#861F77"/>
			<stop  offset="0.9257" style="stop-color:#CC0958"/>
			<stop  offset="1" style="stop-color:#E7004C"/>
		</linearGradient>
		<rect x="45.3" y="978.1" class="st9" width="1910.9" height="27.1"/>
	</g>
</g>
<g id="Textos">
</g>
</svg>
