<svg xmlns="http://www.w3.org/2000/svg" viewBox="0 0 168.93 168.93"><defs><style>.cls-1{fill:none;}.cls-2{fill:#424242;}</style></defs><g id="Capa_2" data-name="Capa 2"><g id="Layer_1" data-name="Layer 1"><path class="cls-1" d="M0,0H168.93V168.93H0Z"/><path class="cls-2" d="M133.74,21.12H104.28a21,21,0,0,0-39.63,0H35.19A14.07,14.07,0,0,0,21.12,35.19v98.55a14.07,14.07,0,0,0,14.07,14.07h98.55a14.07,14.07,0,0,0,14.07-14.07V35.19A14.07,14.07,0,0,0,133.74,21.12ZM91.5,126.7H77.43V112.62H91.5Zm0-28.16H77.43V56.31H91.5Zm-7-63.35a7,7,0,1,1,7-7A7,7,0,0,1,84.46,35.19Z"/></g></g></svg>