<svg xmlns="http://www.w3.org/2000/svg" viewBox="0 0 1920 11.52"><defs><style>.cls-1{fill:#39aa7b}.cls-2{fill:#ddd40f}.cls-3{fill:#da1f76}.cls-4{fill:#884b8a}.cls-5{fill:#263679}.cls-6{fill:#625fa8}</style></defs><g id="Capa_2" data-name="Capa 2"><g id="visualización"><path class="cls-1" d="M0 0h87.68v11.52H0z"/><path class="cls-2" d="M87.68 0h161.28v11.52H87.68z"/><path class="cls-1" d="M248.96 0h231.68v11.52H248.96z"/><path class="cls-3" d="M480.64 0h78.72v11.52h-78.72z"/><path class="cls-4" d="M559.36 0h56.32v11.52h-56.32z"/><path class="cls-1" d="M615.68 0h127.36v11.52H615.68z"/><path class="cls-5" d="M743.04 0h165.12v11.52H743.04z"/><path class="cls-6" d="M908.16 0H960v11.52h-51.84z"/><path class="cls-1" d="M960 0h88.96v11.52H960z"/><path class="cls-2" d="M1048.96 0h160.64v11.52h-160.64z"/><path class="cls-1" d="M1209.6 0H1440v11.52h-230.4z"/><path class="cls-3" d="M1440 0h77.44v11.52H1440z"/><path class="cls-4" d="M1517.44 0h58.88v11.52h-58.88z"/><path class="cls-1" d="M1576.32 0h127.36v11.52h-127.36z"/><path class="cls-5" d="M1703.68 0h165.12v11.52h-165.12z"/><path class="cls-6" d="M1868.8 0h51.2v11.52h-51.2z"/><path class="cls-2" d="M0 11.52h13.44"/><path fill="#57bfc6" d="M304 0h-13.44"/><path class="cls-3" d="M348.8 0H304"/></g></g></svg>