<svg xmlns="http://www.w3.org/2000/svg" viewBox="0 0 433.83 165.17"><g data-name="Capa 2"><path d="M341.12 121.83l-80.06-72.4v72.4h-23.3V.17h2.5l80.05 73.56V.17h23.3v121.66zm38.15-20.97V72.23h45.04V51.09h-45.04V20.64h49.81V0h-73.1v121.83h77.85v-20.97h-54.56zM105.2 35a52.17 52.17 0 0 0-13.54-19.69Q74.87 0 48.78 0H.76v21h48.1a59.17 59.17 0 0 1 13 1.5A30.07 30.07 0 0 1 74 28.3a31.29 31.29 0 0 1 9 12.23q3.49 7.91 3.49 20.55T83 81.55a32.59 32.59 0 0 1-8.91 12.23A29 29 0 0 1 62 99.69a59.87 59.87 0 0 1-13.15 1.49H24.06V54.43H.76v67.4h48A71.46 71.46 0 0 0 72.63 118a54.5 54.5 0 0 0 19-11.32A52.07 52.07 0 0 0 105.2 87a70.32 70.32 0 0 0 4.57-26 69.84 69.84 0 0 0-4.57-26zm-1.85 86.75L165.59.08h2.33l62.25 121.66h-25.3l-18.3-36.57-40.44-.17-17.49 36.76zm53.39-55.13l19.92-.06-9.9-21z" fill="#b6144e"/><path d="M3 164.16H0v-24.41h3zm4.81-25.57l18.33 19.2v-18h3v25.42L10.85 146v18.19h-3zM37 142.54v6.86h8.48v2.78H37v12h-3v-24.43h11.8v2.78zM73.71 152a12.79 12.79 0 0 1-25.58 0 12.79 12.79 0 0 1 25.58 0zm-3 0a9.75 9.75 0 1 0-19.49 0 9.75 9.75 0 1 0 19.49 0zm21.63 12.16h-3.69l-7.19-10.33H80.2v10.33h-3v-24.41h3.69c2.17 0 4.5 0 6.44 1.13a6.75 6.75 0 0 1 3.2 5.83 6.65 6.65 0 0 1-5.86 6.83zM80.2 151.31h1c3.11 0 6.48-.58 6.48-4.47S84 142.47 81 142.47h-.8zM99.38 148h-.06l-2.85 16.12h-3.15l5-25.45 8.39 19.23 8.38-19.23 5 25.45h-3.14L114.08 148H114l-7.32 16.64zm27.37 10l-2.75 6.16h-3.3l11.66-25.45L144 164.16h-3.27L138 158zm5.6-12.66l-4.35 9.92h8.68zm31.97-.93a9.71 9.71 0 0 0-16.09 7.59 9.6 9.6 0 0 0 16.09 7.38V163a13.21 13.21 0 0 1-6.41 1.71 12.64 12.64 0 0 1-12.72-12.59 12.83 12.83 0 0 1 13-12.85 11.77 11.77 0 0 1 6.15 1.65zm7.07 19.75h-3v-24.41h3zM200.3 152a12.79 12.79 0 0 1-25.58 0 12.79 12.79 0 0 1 25.58 0zm-3 0a9.75 9.75 0 1 0-19.49 0 9.75 9.75 0 1 0 19.49 0zm-5.41-18.58l-5.31 4.82-1.42-.87 4-5.38zm11.57 5.17l18.33 19.2v-18h3v25.42L206.5 146v18.19h-3zm39.1 25.57h-3v-24.41H243c7.51 0 9.84 2.59 9.84 7.06 0 5.15-3.92 7.12-8.55 7.12h-1.75zm0-12.95h1c3.11 0 6.48-.59 6.48-4.47s-3.63-4.27-6.64-4.27h-.81zm14.35 6.79l-2.79 6.12h-3.27l11.65-25.45 11.65 25.45h-3.27l-2.77-6.12zm5.6-12.66l-4.34 9.87h8.68zm29.37 18.82h-3.69L281 153.83h-1.26v10.33h-3v-24.41h3.69c2.17 0 4.5 0 6.44 1.13a6.75 6.75 0 0 1 3.2 5.83 6.65 6.65 0 0 1-5.86 6.83zm-12.14-12.85h1c3.11 0 6.48-.58 6.48-4.47s-3.63-4.37-6.64-4.37h-.81zm18.5 6.69l-2.79 6.12h-3.27l11.65-25.45 11.65 25.45h-3.27l-2.77-6.12zm5.6-12.66l-4.34 9.87h8.68zm30.61 18.82h-3v-21.62h-5.8v-2.78h14.63v2.78h-5.79zM367 152a12.79 12.79 0 0 1-25.58 0 12.79 12.79 0 0 1 25.58 0zm-3 0a9.75 9.75 0 1 0-19.49 0 9.75 9.75 0 1 0 19.49 0zm6.19-12.25h5.05c7.48 0 13.69 3.95 13.69 12.08 0 8.32-6.09 12.33-13.79 12.33h-5zm3 21.63h1.07c6.22 0 11.59-2.33 11.59-9.42s-5.38-9.42-11.59-9.42h-1.07zm43.14-9.38a12.79 12.79 0 0 1-25.58 0 12.79 12.79 0 0 1 25.58 0zm-3 0a9.75 9.75 0 1 0-19.49 0 9.75 9.75 0 1 0 19.49 0zm17.29-7.62a4.18 4.18 0 0 0-3.92-2.3c-1.94 0-4.08 1.33-4.08 3.46 0 1.91 1.88 2.92 3.4 3.5l1.75.68c3.47 1.36 6.06 3.27 6.06 7.35a7.52 7.52 0 0 1-7.8 7.61 7.6 7.6 0 0 1-7.54-6.83l3.08-.65a4.62 4.62 0 1 0 9.23-.13c0-2.62-2.1-3.75-4.21-4.63l-1.68-.71c-2.78-1.2-5.31-2.78-5.31-6.18 0-3.95 3.5-6.31 7.19-6.31a7 7 0 0 1 6.28 3.69z" fill="#3e111b"/></g></svg>