<svg id="Capa_1" data-name="Capa 1" xmlns="http://www.w3.org/2000/svg" xmlns:xlink="http://www.w3.org/1999/xlink" viewBox="0 0 500 250"><defs><style>.cls-1{fill:#fff;}.cls-2{clip-path:url(#clip-path);}.cls-3{clip-path:url(#clip-path-2);}.cls-4{clip-path:url(#clip-path-3);}</style><clipPath id="clip-path"><path class="cls-1" d="M13.9,117.53v-5.18c0-1.39,1.22-2.39,2.93-2.39h22c1.71,0,2.93,1,2.93,2.39v4c0,11.15,10.49,19.32,26.84,19.32,15.38,0,23.67-7.37,23.67-17.33,0-11.15-10.73-15.93-32.45-25.29-22.7-9.56-45.15-19.32-45.15-43C14.63,26.91,35.13,13,65.39,13c32.21,0,53.69,15.74,53.69,39.24v4.18c0,1.39-1.22,2.39-2.93,2.39H93.94c-1.71,0-2.93-1-2.93-2.39V52.6C91,41.45,81.5,32.89,64.9,32.89c-13.91,0-22.45,6.17-22.45,16.93,0,11,9,15.53,32.21,25.09,24.89,11.55,45.64,19.91,45.64,42.42,0,23.1-20.75,38.24-53,38.24S13.9,140.43,13.9,117.53Z"/></clipPath><clipPath id="clip-path-2"><path class="cls-1" d="M244.93,38.34H185.7c-.73,0-1.22.4-1.22,1v30.5c0,.6.49,1,1.22,1h43.44c1.71,0,2.93,1,2.93,2.39V94.52c0,1.39-1.22,2.39-2.93,2.39H185.7c-.73,0-1.22.39-1.22,1v31.3c0,.6.49,1,1.22,1h67.84c1.71,0,2.93,1,2.93,2.38v19c0,1.4-1.22,2.39-2.93,2.39H159.1c-1.71,0-2.93-1-2.93-2.39V17c0-1.4,1.22-2.39,2.93-2.39h85.83c1.71,0,2.93,1,2.93,2.39V36C247.86,37.35,246.64,38.34,244.93,38.34Z"/></clipPath><clipPath id="clip-path-3"><path class="cls-1" d="M288.16,151.58V17c0-1.4,1.22-2.39,2.92-2.39h23.24a3.82,3.82,0,0,1,3.42,1.79L371.18,103c.49,1,1.46.8,1.46-.2V17c0-1.4,1.22-2.39,2.93-2.39h22.21c1.7,0,2.93,1,2.93,2.39V151.58c0,1.4-1.23,2.39-2.93,2.39H375.33a3.81,3.81,0,0,1-3.42-1.79l-53.69-87c-.48-1-1.46-.8-1.46.2l.24,86.23c0,1.4-1.22,2.39-2.92,2.39h-23C289.38,154,288.16,153,288.16,151.58Z"/></clipPath></defs><path class="cls-1" d="M33.36,178.32a4.61,4.61,0,0,0-4.31-2.53c-2.14,0-4.49,1.46-4.49,3.81,0,2.1,2.06,3.21,3.74,3.85l1.92.75c3.81,1.49,6.66,3.59,6.66,8.08a8.27,8.27,0,0,1-8.58,8.37,8.36,8.36,0,0,1-8.3-7.51l3.38-.72a5.08,5.08,0,1,0,10.15-.14c0-2.88-2.31-4.13-4.63-5.09l-1.85-.79c-3.06-1.31-5.84-3.06-5.84-6.8,0-4.34,3.85-6.94,7.91-6.94A7.66,7.66,0,0,1,36,176.72Z"/><path class="cls-1" d="M50.58,175.79a2.21,2.21,0,0,1-4.42,0,2.21,2.21,0,1,1,4.42,0ZM50,200.08h-3.2V183.41H50Z"/><path class="cls-1" d="M67.66,187.22a2.46,2.46,0,0,0-2.14-1.46,1.73,1.73,0,0,0-1.74,1.64c0,1.46,1.92,2.1,3.88,3s3.85,2.11,3.85,4.74a5.6,5.6,0,0,1-5.74,5.52A6.15,6.15,0,0,1,60,196.91l2.74-1.24a3.32,3.32,0,0,0,3,2.13,2.38,2.38,0,0,0,2.53-2.35,2,2,0,0,0-1.17-1.82L64,192c-1.85-1-3.2-1.92-3.2-4.2a4.86,4.86,0,0,1,4.91-4.85,5,5,0,0,1,4.56,2.93Z"/><path class="cls-1" d="M84.17,200.08H81V186.4H79.22v-3H81V177h3.21v6.37H87.3v3H84.17Z"/><path class="cls-1" d="M96.83,192.28c0,2.85,2,5.52,5,5.52,2.45,0,3.77-1.24,5-3.24l2.71,1.53a8.67,8.67,0,0,1-7.73,4.56c-5.09,0-8.19-3.85-8.19-8.76,0-5.13,2.74-9,8.12-9s7.8,3.92,7.8,8.87v.5Zm9.51-2.42a4.5,4.5,0,0,0-4.59-4.17A4.77,4.77,0,0,0,97,189.86Z"/><path class="cls-1" d="M121.25,185.51h.07a5.45,5.45,0,0,1,4.42-2.6,5.34,5.34,0,0,1,4.81,3,6,6,0,0,1,5.13-3c4.38,0,5.52,3.42,5.52,7.2v10H138v-9.44c0-2.13-.28-4.88-3.1-4.88-3.42,0-3.67,3.57-3.67,6.13v8.19H128v-8.83c0-2.17-.11-5.49-3.06-5.49-3.42,0-3.71,3.53-3.71,6.13v8.19h-3.2V183.41h3.2Z"/><path class="cls-1" d="M167,200.08h-3.21v-2.6h-.07a6.83,6.83,0,0,1-5.66,3.17c-5.09,0-8-4.24-8-9,0-4.56,3-8.73,7.87-8.73a6.83,6.83,0,0,1,5.77,3.28h.07v-2.78H167Zm-3-8.33c0-3.24-2-6-5.41-6s-5.27,2.89-5.27,6,1.88,6.05,5.27,6.05S163.94,195,163.94,191.75Z"/><path class="cls-1" d="M190.18,173.23H204.6v3.06H193.52v7.51h10.76v3.07H193.52V197H204.6v3.06H190.18Z"/><path class="cls-1" d="M220.93,187.22a2.46,2.46,0,0,0-2.13-1.46,1.74,1.74,0,0,0-1.75,1.64c0,1.46,1.92,2.1,3.88,3s3.85,2.11,3.85,4.74a5.6,5.6,0,0,1-5.73,5.52,6.14,6.14,0,0,1-5.77-3.74l2.74-1.24c.68,1.24,1.49,2.13,3,2.13a2.38,2.38,0,0,0,2.52-2.35,2,2,0,0,0-1.17-1.82L217.27,192c-1.86-1-3.21-1.92-3.21-4.2a4.87,4.87,0,0,1,4.91-4.85,5,5,0,0,1,4.56,2.93Z"/><path class="cls-1" d="M237.44,200.08h-3.2V186.4h-1.75v-3h1.75V177h3.2v6.37h3.14v3h-3.14Z"/><path class="cls-1" d="M263.82,200.08h-3.21v-2.6h-.07a6.81,6.81,0,0,1-5.66,3.17c-5.09,0-8-4.24-8-9,0-4.56,3-8.73,7.87-8.73a6.82,6.82,0,0,1,5.77,3.28h.07v-2.78h3.21Zm-3-8.33c0-3.24-2-6-5.41-6s-5.27,2.89-5.27,6,1.89,6.05,5.27,6.05S260.79,195,260.79,191.75Z"/><path class="cls-1" d="M286.28,197.48h-.07a6.87,6.87,0,0,1-5.67,3.17c-5.12,0-8-4.24-8-9,0-4.56,3-8.73,7.83-8.73a6.85,6.85,0,0,1,5.81,3.28h.07v-17h3.2v30.91h-3.2Zm.18-5.73c0-3.24-2-6-5.42-6s-5.27,2.89-5.27,6,1.89,6.05,5.27,6.05S286.46,195,286.46,191.75Z"/><path class="cls-1" d="M306.6,175.51l-5.84,5.3-1.57-1,4.45-5.91Zm-3.17,24.57h-3.2V183.41h3.2Z"/><path class="cls-1" d="M321.12,187.22a2.46,2.46,0,0,0-2.14-1.46,1.74,1.74,0,0,0-1.75,1.64c0,1.46,1.93,2.1,3.89,3s3.84,2.11,3.84,4.74a5.59,5.59,0,0,1-5.73,5.52,6.15,6.15,0,0,1-5.77-3.74l2.74-1.24a3.32,3.32,0,0,0,3,2.13,2.39,2.39,0,0,0,2.53-2.35,2,2,0,0,0-1.18-1.82L317.45,192c-1.85-1-3.21-1.92-3.21-4.2a4.87,4.87,0,0,1,4.92-4.85,5,5,0,0,1,4.56,2.93Z"/><path class="cls-1" d="M337.63,200.08h-3.21V186.4h-1.74v-3h1.74V177h3.21v6.37h3.13v3h-3.13Z"/><path class="cls-1" d="M352.89,178.05a2.21,2.21,0,0,1-4.42,0,2.21,2.21,0,1,1,4.42,0Zm-.6,22h-3.21V183.41h3.21Z"/><path class="cls-1" d="M374.76,188.15a6.11,6.11,0,0,0-4.77-2.24,5.76,5.76,0,0,0-5.56,5.84,5.63,5.63,0,0,0,5.77,5.91,6,6,0,0,0,4.56-2.21v4.1a9.35,9.35,0,0,1-4.59,1.1,8.77,8.77,0,0,1-8.94-8.76,8.87,8.87,0,0,1,9.11-9,9,9,0,0,1,4.42,1.11Z"/><path class="cls-1" d="M401.16,191.78a8.91,8.91,0,1,1-8.91-8.87A8.77,8.77,0,0,1,401.16,191.78Zm-14.61,0a5.7,5.7,0,1,0,5.7-5.8A5.79,5.79,0,0,0,386.55,191.78Z"/><path class="cls-1" d="M20,210.38,40.12,231.5V211.66h3.35v28L23.31,218.5v20H20Z"/><path class="cls-1" d="M69,238.52H65.74v-2.6h-.07A6.81,6.81,0,0,1,60,239.09c-5.09,0-8-4.24-8-9,0-4.56,3-8.73,7.87-8.73a6.8,6.8,0,0,1,5.77,3.28h.07v-2.78H69Zm-3-8.34c0-3.24-2-6-5.41-6s-5.27,2.88-5.27,6,1.89,6.06,5.27,6.06S65.92,233.46,65.92,230.18Z"/><path class="cls-1" d="M91.57,226.59a6.12,6.12,0,0,0-4.77-2.25,5.77,5.77,0,0,0-5.56,5.84A5.64,5.64,0,0,0,87,236.1a6,6,0,0,0,4.56-2.21V238A9.25,9.25,0,0,1,87,239.09,8.77,8.77,0,0,1,78,230.33a8.86,8.86,0,0,1,9.11-9,9,9,0,0,1,4.42,1.11Z"/><path class="cls-1" d="M105.75,216a2.21,2.21,0,0,1-4.42,0,2.21,2.21,0,1,1,4.42,0Zm-.61,22.49h-3.2V221.85h3.2Z"/><path class="cls-1" d="M132.79,230.22a8.91,8.91,0,1,1-8.91-8.87A8.77,8.77,0,0,1,132.79,230.22Zm-14.61,0a5.7,5.7,0,1,0,5.7-5.81A5.79,5.79,0,0,0,118.18,230.22Z"/><path class="cls-1" d="M145.11,224.09h.07a5.7,5.7,0,0,1,5-2.74c4.7,0,5.91,3.17,5.91,7.23v9.94h-3.21V229c0-2.85-.39-4.77-3.67-4.77-4.13,0-4.13,3.63-4.13,6.66v7.66h-3.2V221.85h3.2Z"/><path class="cls-1" d="M182.37,238.52h-3.21v-2.6h-.07a6.81,6.81,0,0,1-5.66,3.17c-5.09,0-8-4.24-8-9,0-4.56,3-8.73,7.87-8.73a6.8,6.8,0,0,1,5.77,3.28h.07v-2.78h3.21Zm-3-8.34c0-3.24-2-6-5.41-6s-5.27,2.88-5.27,6,1.89,6.06,5.27,6.06S179.34,233.46,179.34,230.18Z"/><path class="cls-1" d="M195.31,238.52h-3.2V207.6h3.2Z"/><path class="cls-1" d="M247,217.25a11.92,11.92,0,0,0-8.77-4.13,12.14,12.14,0,0,0-11.88,12,11.36,11.36,0,0,0,3.5,8.08,12.66,12.66,0,0,0,8.38,3.6,12.41,12.41,0,0,0,8.77-4v2.29a13.55,13.55,0,0,1-8.7,3.26,13.42,13.42,0,1,1,0-26.83A13,13,0,0,1,247,215Z"/><path class="cls-1" d="M272.24,230a8.26,8.26,0,0,1-8.42,8.35,8.36,8.36,0,1,1,8.42-8.35Zm-15.18,0a6.81,6.81,0,1,0,6.65-6.93A6.79,6.79,0,0,0,257.06,230.07Z"/><path class="cls-1" d="M282.46,238H280.9V209.45h1.56Z"/><path class="cls-1" d="M308.31,230a8.26,8.26,0,0,1-8.42,8.35,8.36,8.36,0,1,1,8.42-8.35Zm-15.18,0a6.81,6.81,0,1,0,6.65-6.93A6.79,6.79,0,0,0,293.13,230.07Z"/><path class="cls-1" d="M319,224h.07a4.41,4.41,0,0,1,4-2.36,4.72,4.72,0,0,1,4.51,2.91,4.94,4.94,0,0,1,4.68-2.91c4.12,0,4.95,2.81,4.95,6.31v10h-1.56V227.78c0-2.46-.38-4.64-3.43-4.64-3.33,0-4.12,2.91-4.12,5.68V238h-1.56v-9.87c0-2.5-.45-5-3.57-5-3.36,0-4,3.5-4,6.1V238h-1.56V222H319Z"/><path class="cls-1" d="M347.88,209.45h1.56V224.8h.07a7.37,7.37,0,0,1,6.17-3.12c4.79,0,7.38,3.57,7.38,8.25s-2.59,8.46-7.45,8.46a7.19,7.19,0,0,1-6.1-3.22h-.07V238h-1.56ZM362,229.93c0-3.5-2.53-6.79-6.24-6.79-4.06,0-6.38,3-6.38,6.83s2.36,7,6.31,7S362,233.61,362,229.93Z"/><path class="cls-1" d="M375.43,216.69a1.42,1.42,0,0,1-2.84,0,1.42,1.42,0,0,1,2.84,0ZM374.77,238h-1.56V222h1.56Z"/><path class="cls-1" d="M400.14,238h-1.56v-2.87h-.07a7.18,7.18,0,0,1-6.1,3.22c-4.85,0-7.9-3.78-7.9-8.46s3-8.25,7.83-8.25a7.37,7.37,0,0,1,6.17,3.12h.07V222h1.56Zm-14.07-8.11c0,3.68,2.42,7,6.31,7,4.09,0,6.31-3.32,6.31-7.17a6.28,6.28,0,0,0-6.42-6.62C388.6,223.14,386.07,226.47,386.07,229.93Z"/><path class="cls-1" d="M462.29,29.49v1.74h-10.9l7.89-9.31a4.36,4.36,0,0,0,1.14-2.82,3.27,3.27,0,0,0-3.36-3.26,3.32,3.32,0,0,0-3.39,3.46h-1.88a5.25,5.25,0,0,1,10.5-.22A5.21,5.21,0,0,1,461,22.63l-5.83,6.86Z"/><path class="cls-1" d="M471.16,30.25a1.25,1.25,0,1,1-2.5,0,1.25,1.25,0,0,1,2.5,0Z"/><path class="cls-1" d="M488.5,22.83c0,4.16-2.19,8.69-6,8.69s-6-4.53-6-8.69c0-3.46,1.77-8.73,6-8.73S488.5,19.37,488.5,22.83Zm-10.19.09c.05,2.37,1.05,6.86,4.16,6.86s4.11-4.49,4.15-6.86-1-7.08-4.15-7.08S478.27,20.53,478.31,22.92Z"/><polygon class="cls-1" points="443.01 32.37 425.08 14.45 443.01 14.45 443.01 32.37"/><path class="cls-1" d="M13.9,117.53v-5.18c0-1.39,1.22-2.39,2.93-2.39h22c1.71,0,2.93,1,2.93,2.39v4c0,11.15,10.49,19.32,26.84,19.32,15.38,0,23.67-7.37,23.67-17.33,0-11.15-10.73-15.93-32.45-25.29-22.7-9.56-45.15-19.32-45.15-43C14.63,26.91,35.13,13,65.39,13c32.21,0,53.69,15.74,53.69,39.24v4.18c0,1.39-1.22,2.39-2.93,2.39H93.94c-1.71,0-2.93-1-2.93-2.39V52.6C91,41.45,81.5,32.89,64.9,32.89c-13.91,0-22.45,6.17-22.45,16.93,0,11,9,15.53,32.21,25.09,24.89,11.55,45.64,19.91,45.64,42.42,0,23.1-20.75,38.24-53,38.24S13.9,140.43,13.9,117.53Z"/><g class="cls-2"><rect class="cls-1" x="13.9" y="-11.22" width="468.02" height="184.76"/></g><path class="cls-1" d="M244.93,38.34H185.7c-.73,0-1.22.4-1.22,1v30.5c0,.6.49,1,1.22,1h43.44c1.71,0,2.93,1,2.93,2.39V94.52c0,1.39-1.22,2.39-2.93,2.39H185.7c-.73,0-1.22.39-1.22,1v31.3c0,.6.49,1,1.22,1h67.84c1.71,0,2.93,1,2.93,2.38v19c0,1.4-1.22,2.39-2.93,2.39H159.1c-1.71,0-2.93-1-2.93-2.39V17c0-1.4,1.22-2.39,2.93-2.39h85.83c1.71,0,2.93,1,2.93,2.39V36C247.86,37.35,246.64,38.34,244.93,38.34Z"/><g class="cls-3"><polygon class="cls-1" points="443.67 170.47 -24.35 170.47 -23.18 -14.29 444.84 -14.29 443.67 170.47"/></g><path class="cls-1" d="M288.16,151.58V17c0-1.4,1.22-2.39,2.92-2.39h23.24a3.82,3.82,0,0,1,3.42,1.79L371.18,103c.49,1,1.46.8,1.46-.2V17c0-1.4,1.22-2.39,2.93-2.39h22.21c1.7,0,2.93,1,2.93,2.39V151.58c0,1.4-1.23,2.39-2.93,2.39H375.33a3.81,3.81,0,0,1-3.42-1.79l-53.69-87c-.48-1-1.46-.8-1.46.2l.24,86.23c0,1.4-1.22,2.39-2.92,2.39h-23C289.38,154,288.16,153,288.16,151.58Z"/><g class="cls-4"><rect class="cls-1" x="-64.4" y="-11.22" width="468.02" height="184.76"/></g><path class="cls-1" d="M65.21,153.5c-15.86,0-29.33-3.63-39-10.48S11.5,126.52,11.5,115.2V110c0-1.54,1.34-2.66,3.19-2.66h22c1.85,0,3.19,1.12,3.19,2.66v4A16.71,16.71,0,0,0,47,127.63c4.82,3.55,11.53,5.42,19.4,5.42,14.43,0,23.4-6.53,23.4-17.06s-9.9-15.4-32.29-25C35.27,81.56,12.23,71.86,12.23,47.68A32.48,32.48,0,0,1,26.37,20.29c9.06-6.49,21.82-9.91,36.88-9.91,32.27,0,54,15.87,54,39.49v4.19c0,1.53-1.34,2.65-3.19,2.65H91.8c-1.84,0-3.19-1.12-3.19-2.65V50.27c0-11.63-10.38-19.45-25.84-19.45-13.9,0-22.19,6.23-22.19,16.67,0,10.68,8.31,15,32.05,24.84l3.78,1.75c23.47,10.83,42,19.39,42,40.92C118.42,138.38,97.53,153.5,65.21,153.5ZM14.69,107.89c-1.57,0-2.66.88-2.66,2.13v5.18c0,11.15,5,20.62,14.53,27.39S49.46,153,65.21,153c32,0,52.69-14.91,52.69-38,0-21.19-18.41-29.69-41.71-40.44l-3.77-1.74C48.93,63.13,40.05,58.44,40.05,47.49c0-10.77,8.49-17.2,22.72-17.2,15.77,0,26.37,8,26.37,20v3.79c0,1.25,1.1,2.12,2.66,2.12H114c1.57,0,2.67-.87,2.67-2.12V49.87c0-23.3-21.47-39-53.43-39-15,0-27.6,3.39-36.57,9.8a32,32,0,0,0-13.92,27c0,23.83,22.87,33.46,45,42.78,21,9.06,32.62,14.05,32.62,25.53a15.4,15.4,0,0,1-6.17,12.61c-4.22,3.26-10.36,5-17.76,5-8,0-14.8-1.91-19.71-5.53A17.22,17.22,0,0,1,39.32,114v-4c0-1.25-1.1-2.13-2.66-2.13Z"/><path class="cls-1" d="M69.58,157.7c-15.86,0-29.33-3.62-39-10.48S15.87,130.73,15.87,119.4v-5.17c0-1.54,1.34-2.66,3.19-2.66H41c1.85,0,3.2,1.12,3.2,2.66v4a16.71,16.71,0,0,0,7.18,13.63c4.82,3.54,11.53,5.42,19.4,5.42,14.43,0,23.4-6.54,23.4-17.06,0-10.68-9.9-15.4-32.29-25C39.63,85.77,16.6,76.07,16.6,51.89a32.51,32.51,0,0,1,14.14-27.4c9.06-6.48,21.82-9.9,36.88-9.9,32.27,0,53.95,15.87,53.95,39.49v4.18c0,1.54-1.34,2.66-3.19,2.66H96.17c-1.85,0-3.19-1.12-3.19-2.66V54.48C93,42.85,82.6,35,67.14,35,53.24,35,45,41.26,45,51.69,45,62.37,53.26,66.75,77,76.54l3.78,1.75c23.47,10.83,42,19.39,42,40.91C122.79,142.59,101.9,157.7,69.58,157.7ZM19.06,112.1c-1.57,0-2.66.87-2.66,2.13v5.17c0,11.15,5,20.63,14.53,27.39s22.9,10.39,38.65,10.39c32,0,52.69-14.91,52.69-38,0-21.18-18.41-29.68-41.71-40.43L76.79,77C53.3,67.34,44.42,62.65,44.42,51.69c0-10.76,8.49-17.19,22.72-17.19,15.77,0,26.37,8,26.37,20v3.78c0,1.26,1.1,2.13,2.66,2.13h22.21c1.57,0,2.66-.87,2.66-2.13V54.08c0-23.31-21.46-39-53.42-39-15,0-27.6,3.4-36.57,9.81a32,32,0,0,0-13.92,27c0,23.83,22.87,33.46,45,42.77,21,9.07,32.62,14.06,32.62,25.54a15.37,15.37,0,0,1-6.17,12.6c-4.22,3.27-10.37,5-17.76,5-8,0-14.8-1.91-19.71-5.53a17.22,17.22,0,0,1-7.4-14v-4c0-1.26-1.1-2.13-2.67-2.13Z"/><path class="cls-1" d="M251.39,152.2H157c-1.85,0-3.19-1.12-3.19-2.66V14.92c0-1.54,1.34-2.66,3.19-2.66h85.83c1.85,0,3.19,1.12,3.19,2.66v19c0,1.53-1.34,2.65-3.19,2.65H183.55c-.58,0-1,.29-1,.73V67.8c0,.45.37.73,1,.73H227c1.85,0,3.19,1.12,3.19,2.66V92.48c0,1.54-1.34,2.65-3.19,2.65H183.55c-.58,0-1,.29-1,.73v31.3c0,.45.37.73,1,.73h67.84c1.85,0,3.2,1.12,3.2,2.66v19C254.59,151.08,253.24,152.2,251.39,152.2ZM157,12.79c-1.56,0-2.66.88-2.66,2.13V149.54c0,1.25,1.1,2.13,2.66,2.13h94.44c1.57,0,2.67-.88,2.67-2.13v-19c0-1.26-1.1-2.13-2.67-2.13H183.55a1.32,1.32,0,0,1-1.48-1.26V95.86a1.32,1.32,0,0,1,1.48-1.26H227c1.57,0,2.66-.87,2.66-2.12V71.19c0-1.25-1.09-2.13-2.66-2.13H183.55a1.32,1.32,0,0,1-1.48-1.26V37.3A1.32,1.32,0,0,1,183.55,36h59.23c1.57,0,2.67-.87,2.67-2.12v-19c0-1.25-1.1-2.13-2.67-2.13Z"/><path class="cls-1" d="M255.49,156.11H161.05c-1.85,0-3.19-1.11-3.19-2.65V18.83c0-1.54,1.34-2.65,3.19-2.65h85.83c1.85,0,3.19,1.11,3.19,2.65v19c0,1.54-1.34,2.65-3.19,2.65H187.65c-.58,0-1,.29-1,.74v30.5c0,.44.37.73,1,.73h43.44c1.85,0,3.19,1.11,3.19,2.65V96.39c0,1.54-1.34,2.66-3.19,2.66H187.65c-.58,0-1,.28-1,.73v31.3c0,.44.37.73,1,.73h67.84c1.85,0,3.19,1.11,3.19,2.65v19C258.68,155,257.34,156.11,255.49,156.11ZM161.05,16.71c-1.56,0-2.66.87-2.66,2.12V153.46c0,1.25,1.1,2.12,2.66,2.12h94.44c1.57,0,2.67-.87,2.67-2.12v-19c0-1.25-1.1-2.12-2.67-2.12H187.65a1.32,1.32,0,0,1-1.48-1.26V99.78a1.32,1.32,0,0,1,1.48-1.26h43.44c1.57,0,2.66-.88,2.66-2.13V75.1c0-1.25-1.09-2.12-2.66-2.12H187.65a1.32,1.32,0,0,1-1.48-1.26V41.22A1.32,1.32,0,0,1,187.65,40h59.23c1.57,0,2.66-.88,2.66-2.13v-19c0-1.25-1.09-2.12-2.66-2.12Z"/><path class="cls-1" d="M400,156.28H377.51a4.11,4.11,0,0,1-3.65-1.91l-53.68-87c-.21-.43-.49-.57-.67-.52s-.31.26-.31.58l.25,86.23c0,1.54-1.34,2.65-3.19,2.65h-23c-1.85,0-3.19-1.11-3.19-2.65V19c0-1.54,1.34-2.66,3.19-2.66H316.5a4.08,4.08,0,0,1,3.64,1.92l53.44,86.63c.21.43.48.56.67.52s.31-.27.31-.58V19c0-1.54,1.34-2.66,3.19-2.66H400c1.85,0,3.19,1.12,3.19,2.66V153.63C403.15,155.17,401.81,156.28,400,156.28Zm-80.38-90a1.27,1.27,0,0,1,1.06.8l53.67,87a3.55,3.55,0,0,0,3.2,1.67H400c1.57,0,2.66-.88,2.66-2.13V19c0-1.26-1.09-2.13-2.66-2.13H377.75c-1.57,0-2.66.87-2.66,2.13v85.83a1,1,0,0,1-.72,1.1,1.19,1.19,0,0,1-1.25-.79l-53.43-86.6a3.53,3.53,0,0,0-3.19-1.67H293.26c-1.56,0-2.66.87-2.66,2.13V153.63c0,1.25,1.1,2.13,2.66,2.13h23c1.56,0,2.66-.88,2.66-2.13l-.24-86.23a1,1,0,0,1,.71-1.1Z"/><path class="cls-1" d="M395.71,152.33H373.26a4.08,4.08,0,0,1-3.64-1.92l-53.69-87c-.21-.43-.48-.57-.66-.53s-.31.27-.31.59l.24,86.23c0,1.54-1.34,2.65-3.19,2.65H289c-1.85,0-3.19-1.11-3.19-2.65V15.05c0-1.53,1.34-2.65,3.19-2.65h23.23a4.1,4.1,0,0,1,3.65,1.92L369.34,101c.21.42.48.56.66.52s.31-.27.31-.58V15.05c0-1.53,1.34-2.65,3.19-2.65h22.21c1.85,0,3.19,1.12,3.19,2.65V149.68C398.9,151.22,397.56,152.33,395.71,152.33Zm-80.37-90a1.27,1.27,0,0,1,1.06.8l53.67,87a3.53,3.53,0,0,0,3.19,1.66h22.45c1.57,0,2.67-.87,2.67-2.12V15.05c0-1.25-1.1-2.12-2.67-2.12H373.5c-1.56,0-2.66.87-2.66,2.12v85.84a1,1,0,0,1-.72,1.09,1.15,1.15,0,0,1-1.24-.78L315.45,14.6a3.53,3.53,0,0,0-3.2-1.67H289c-1.57,0-2.67.87-2.67,2.12V149.68c0,1.25,1.1,2.12,2.67,2.12h23c1.57,0,2.66-.87,2.66-2.12l-.24-86.23a1,1,0,0,1,.72-1.1Z"/><path class="cls-1" d="M214.32,226.58v2.6h-7.21v-2.6Z"/></svg>