<svg id="Capa_1" data-name="Capa 1" xmlns="http://www.w3.org/2000/svg" viewBox="0 0 500 210"><defs><style>.cls-1{fill:#b6144e;}.cls-2{fill:#3e111b;}</style></defs><path class="cls-1" d="M386.82,148.23,298.63,68.48v79.75H273v-134h2.75l88.18,81v-81h25.67v134Z"/><polygon class="cls-1" points="428.85 125.13 428.85 93.59 478.46 93.59 478.46 70.31 428.85 70.31 428.85 36.76 483.71 36.76 483.71 14.03 479.46 14.03 424.6 14.03 403.18 14.03 403.18 148.23 424.6 148.23 488.94 148.23 488.94 125.13 428.85 125.13"/><path class="cls-1" d="M126.94,52.62A57.63,57.63,0,0,0,112,30.89Q93.53,14,64.79,14H11.89v23.1h53a65.17,65.17,0,0,1,14.31,1.65A33.11,33.11,0,0,1,92.55,45.2a34.47,34.47,0,0,1,9.91,13.47q3.84,8.72,3.85,22.64t-3.85,22.55a35.9,35.9,0,0,1-9.81,13.48,31.87,31.87,0,0,1-13.29,6.51,65.85,65.85,0,0,1-14.49,1.64H37.56V74H11.89v51.45h0v22.79h52.9A78.71,78.71,0,0,0,91.06,144a60.12,60.12,0,0,0,21-12.46,57.48,57.48,0,0,0,14.92-21.73,77.4,77.4,0,0,0,5-28.69A77,77,0,0,0,126.94,52.62Z"/><path class="cls-1" d="M124.9,148.14l68.57-134H196l68.57,134H236.73l-20.15-40.28L172,107.64l-19.26,40.5Zm58.81-60.73,21.94-.07-10.9-23.17Z"/><path class="cls-2" d="M14.41,194.86H11.06V168h3.35Z"/><path class="cls-2" d="M19.66,166.69l20.18,21.15V168H43.2v28L23,174.82v20H19.66Z"/><path class="cls-2" d="M51.84,171v7.56h9.34v3.07H51.84v13.19H48.49V168h13V171Z"/><path class="cls-2" d="M92.26,181.42a14.09,14.09,0,0,1-28.18,0,14.09,14.09,0,0,1,28.18,0Zm-3.36,0a10.73,10.73,0,1,0-21.46,0,10.73,10.73,0,1,0,21.46,0Z"/><path class="cls-2" d="M112.78,194.86h-4.07l-7.91-11.37H99.41v11.37H96.05V168h4.07c2.39,0,5,0,7.1,1.25a7.46,7.46,0,0,1,3.53,6.42,7.33,7.33,0,0,1-6.46,7.53ZM99.41,180.7h1.07c3.42,0,7.13-.64,7.13-4.91s-4-4.82-7.31-4.82h-.89Z"/><path class="cls-2" d="M120.53,177.1h-.07l-3.14,17.76h-3.46l5.49-28L128.59,188l9.23-21.19,5.5,28h-3.46l-3.14-17.76h-.07l-8.06,18.33Z"/><path class="cls-2" d="M150.68,188.12l-3.07,6.74H144l12.84-28,12.84,28h-3.6L163,188.12Zm6.17-13.94-4.78,10.88h9.56Z"/><path class="cls-2" d="M192.06,173.11a10.69,10.69,0,0,0-17.72,8.34,10.57,10.57,0,0,0,17.72,8.13v4a14.51,14.51,0,0,1-7.06,1.88,13.91,13.91,0,0,1-14-13.87,14.13,14.13,0,0,1,14.3-14.16,12.94,12.94,0,0,1,6.77,1.82Z"/><path class="cls-2" d="M199.85,194.86H196.5V168h3.35Z"/><path class="cls-2" d="M231.7,181.42a14.09,14.09,0,0,1-28.17,0,14.09,14.09,0,0,1,28.17,0Zm-3.35,0a10.74,10.74,0,1,0-21.47,0,10.74,10.74,0,1,0,21.47,0Zm-6-20.47-5.84,5.31-1.57-1,4.46-5.92Z"/><path class="cls-2" d="M235.18,166.69l20.18,21.15V168h3.36v28l-20.19-21.15v20h-3.35Z"/><path class="cls-2" d="M278.24,194.86h-3.35V168h3.85c8.28,0,10.85,2.86,10.85,7.78,0,5.67-4.32,7.84-9.42,7.84h-1.93Zm0-14.26h1.07c3.43,0,7.14-.64,7.14-4.92s-4-4.71-7.31-4.71h-.9Z"/><path class="cls-2" d="M294.05,188.12,291,194.86h-3.6l12.84-28,12.84,28h-3.6l-3.07-6.74Zm6.17-13.94-4.78,10.88H305Z"/><path class="cls-2" d="M332.58,194.86h-4.06l-7.92-11.37h-1.39v11.37h-3.36V168h4.07c2.39,0,5,0,7.1,1.25a7.46,7.46,0,0,1,3.53,6.42,7.33,7.33,0,0,1-6.46,7.53ZM319.21,180.7h1.07c3.42,0,7.13-.64,7.13-4.91s-4-4.82-7.31-4.82h-.89Z"/><path class="cls-2" d="M339.58,188.12l-3.06,6.74h-3.61l12.84-28,12.84,28H355l-3.07-6.74Zm6.17-13.94L341,185.06h9.56Z"/><path class="cls-2" d="M379.47,194.86h-3.35V171h-6.38V168h16.12V171h-6.39Z"/><path class="cls-2" d="M415.32,181.42a14.09,14.09,0,0,1-28.17,0,14.09,14.09,0,0,1,28.17,0Zm-3.35,0a10.74,10.74,0,1,0-21.47,0,10.74,10.74,0,1,0,21.47,0Z"/><path class="cls-2" d="M418.84,168h5.56c8.24,0,15.08,4.35,15.08,13.31,0,9.16-6.7,13.58-15.19,13.58h-5.45Zm3.35,23.83h1.17c6.85,0,12.77-2.57,12.77-10.38S430.21,171,423.36,171h-1.17Z"/><path class="cls-2" d="M469.67,181.42a14.09,14.09,0,0,1-28.17,0,14.09,14.09,0,0,1,28.17,0Zm-3.35,0a10.74,10.74,0,1,0-21.47,0,10.74,10.74,0,1,0,21.47,0Z"/><path class="cls-2" d="M485.41,173.07a4.61,4.61,0,0,0-4.31-2.53c-2.14,0-4.5,1.46-4.5,3.82,0,2.1,2.07,3.21,3.75,3.85l1.92.75c3.82,1.49,6.67,3.6,6.67,8.09a8.28,8.28,0,0,1-8.59,8.38,8.38,8.38,0,0,1-8.31-7.52l3.39-.71a5.08,5.08,0,1,0,10.16-.15c0-2.88-2.32-4.13-4.64-5.1l-1.85-.78c-3.07-1.32-5.85-3.07-5.85-6.81,0-4.35,3.85-7,7.92-7a7.7,7.7,0,0,1,6.92,4.07Z"/></svg>